<svg width="104" height="101" viewBox="0 0 104 101" fill="none" xmlns="http://www.w3.org/2000/svg">
<path d="M10.233 84.3336C8.55403 84.006 6.48269 82.7765 4.79364 83.6707C3.2394 84.4935 2.68809 86.9495 2.68809 88.5447C2.68809 89.4951 2.66989 90.2665 3.12674 91.0889C3.5031 91.7663 4.21397 92.2341 4.79364 92.7558C5.49056 93.383 7.12686 93.4576 8.0397 93.4576C8.75952 93.4576 9.29978 92.5205 9.88206 92.2294" stroke="black" stroke-width="2.752" stroke-linecap="round"/>
<path d="M19.5325 83.2808C17.4437 83.3305 17.0883 85.4247 16.4619 87.0533C15.9413 88.4069 16.7288 90.1068 17.4269 91.2156C18.3028 92.6068 19.8626 93.8086 21.5601 93.8086C23.1618 93.8086 25.0992 93.4781 25.8491 91.7908C26.8318 89.5798 27.53 86.411 25.4105 84.7625C24.6626 84.1808 23.1091 83.1053 22.1644 83.1053C21.0465 83.1053 20.1597 83.3182 19.1816 83.8072" stroke="black" stroke-width="2.752" stroke-linecap="round"/>
<path d="M34.6223 83.1053C34.6223 88.2492 34.7978 93.3906 34.7978 98.5461" stroke="black" stroke-width="2.752" stroke-linecap="round"/>
<path d="M34.9733 85.7373C35.7516 84.1495 36.9641 81.7017 39.0869 81.7017C40.6076 81.7017 41.444 81.8954 42.7326 82.7544C44.4115 83.8737 45.3325 87.4001 44.4093 89.2466C44.0235 90.0181 43.4179 90.8158 42.6059 91.1766C42.2127 91.3514 42.1645 91.703 41.6409 91.703C41.1145 91.703 40.5881 91.703 40.0617 91.703C39.1026 91.703 38.2152 91.3892 37.342 91.0012C36.5762 90.6608 36.1588 89.9271 35.4997 89.5975" stroke="black" stroke-width="2.752" stroke-linecap="round"/>
<path d="M49.5367 82.4035C50.4621 83.3289 50.9332 84.4498 51.8177 85.3864C52.3841 85.9861 53.0362 86.6189 53.4846 87.3165C54.0778 88.2392 54.9854 88.9238 55.327 89.9484" stroke="black" stroke-width="2.752" stroke-linecap="round"/>
<path d="M59.1871 83.4563C58.1944 85.8277 56.8811 87.9848 55.941 90.3871C55.3816 91.8168 54.8767 93.3247 54.1961 94.6859C53.8072 95.4638 53.6256 96.33 53.0849 97.0059C52.6758 97.5172 51.9931 98.9095 51.9931 99.5989" stroke="black" stroke-width="2.752" stroke-linecap="round"/>
<path d="M74.1014 83.8072C71.7585 82.4126 68.9175 81.2605 67.0049 83.7195C66.5893 84.2539 66.3811 85.7859 66.3811 86.4392C66.3811 87.6362 65.9481 88.8359 66.3811 90.0264C66.6747 90.834 67.6099 91.8664 68.3112 92.3172C69.151 92.8571 69.8855 93.0267 70.7676 93.4187C71.9866 93.9605 73.3379 92.348 74.2769 91.8785" stroke="black" stroke-width="2.752" stroke-linecap="round"/>
<path d="M89.0158 85.2109C87.0944 84.8651 85.9633 83.6317 84.0151 83.6317C83.3728 83.6317 83.0936 83.5969 82.6114 83.9827C82.1104 84.3834 81.6463 85.3213 81.6463 85.9517C81.6463 86.7491 81.4709 87.5452 81.4709 88.3692C81.4709 89.4788 82.1818 90.2173 82.9818 90.9232C83.7703 91.6189 84.8717 92.2294 85.9452 92.2294C86.7546 92.2294 87.8967 92.5041 88.4894 91.8785C89.8995 90.3901 89.8931 88.4123 89.8931 86.5269C89.8931 85.942 89.8931 85.3571 89.8931 84.7722C89.8931 84.1115 89.7176 83.5535 89.7176 84.6455C89.7176 87.4786 90.4195 90.1015 90.4195 92.9313" stroke="black" stroke-width="2.752" stroke-linecap="round"/>
<path d="M98.8417 78.3679C98.8417 79.5905 98.9575 80.5391 99.2804 81.7017C99.4341 82.2549 99.719 82.9867 99.719 83.5538C99.719 85.1254 100.07 86.6393 100.07 88.2328C100.07 89.3018 100.07 90.3708 100.07 91.4398C100.07 92.2931 99.719 93.1293 99.719 93.984" stroke="black" stroke-width="2.752" stroke-linecap="round"/>
<path d="M96.5607 83.2808C97.5687 83.2808 99.2188 83.0224 100.158 83.544C100.673 83.8301 101.414 83.8072 102 83.8072" stroke="black" stroke-width="2.752" stroke-linecap="round"/>
<path d="M42.375 30.0066C42.3481 30.0745 42.3099 30.1277 42.264 30.1673C42.2194 30.2295 42.1736 30.2907 42.1267 30.351C41.9328 30.6002 40.2897 31.6902 40.2399 30.8446C40.1984 30.1397 40.339 29.4446 40.6354 28.8302C40.659 28.0929 41.3297 27.4724 41.9518 27.309C42.0972 27.2125 42.2506 27.1256 42.4119 27.0492C43.6894 26.4441 43.1836 27.3986 43.0068 28.1211C43.0071 28.1309 43.0072 28.1408 43.0073 28.1508C43.1968 28.3208 43.0322 28.74 42.8284 29.1218C42.7168 29.4326 42.5597 29.7282 42.375 30.0066Z" fill="black"/>
<path d="M42.4119 28.4752C42.1621 28.9018 41.3287 31.5048 42.017 29.9561C42.1123 29.7416 43.0796 28.2778 42.6093 28.2778C42.2523 28.2778 41.535 29.0266 41.4356 29.3747C41.1966 30.2112 42.3173 30.6138 42.4119 29.8574C42.4299 29.713 43.5271 28.272 42.8945 28.0913C42.2824 27.9164 41.6727 28.0728 41.271 28.5191C40.7346 29.1152 40.6348 29.774 40.6348 30.5485C40.6348 31.3278 41.8703 30.6123 42.0608 30.2523C42.4044 29.6033 42.8351 28.8909 42.9932 28.1791C43.155 27.4513 43.7239 26.4277 42.4119 27.0492C40.9696 27.7324 40.1469 29.2637 40.2399 30.8446C40.2897 31.6902 41.9328 30.6002 42.1267 30.351C42.5964 29.7471 42.9614 29.0477 43.0042 28.2778C43.1077 26.4143 40.6348 27.4347 40.6348 28.8701" stroke="black" stroke-width="2.064" stroke-linecap="round"/>
<path d="M49.3227 27.6415C49.7082 27.8456 49.6187 28.3336 49.4389 28.7706C49.5247 29.8042 48.9664 31.4225 48.5329 31.8319C48.2337 32.1145 47.7371 32.0509 47.3482 32.0293C46.7992 31.9988 46.9533 31.2616 46.9533 30.8885C46.9533 29.8805 47.4403 29.2261 47.5457 28.2778C47.6446 27.3872 48.6705 27.2962 49.3227 27.6415Z" fill="black"/>
<path d="M48.3355 27.488C48.1211 28.4648 47.5457 29.4942 47.5457 30.4497C47.5457 31.6458 48.8955 29.7786 49.0814 29.4625C49.306 29.0807 49.9567 27.9772 49.3227 27.6415C48.6705 27.2962 47.6446 27.3872 47.5457 28.2778C47.4403 29.2261 46.9533 29.8805 46.9533 30.8885C46.9533 31.2616 46.7992 31.9988 47.3482 32.0293C47.7371 32.0509 48.2337 32.1145 48.5329 31.8319C49.1833 31.2177 50.1144 27.8829 48.7304 27.8829" stroke="black" stroke-width="2.064" stroke-linecap="round"/>
<path d="M4.4067 49.0199C3.91024 48.6438 2.93151 47.8773 2.84942 47.1795C2.82642 46.9839 2.63187 46.6657 2.53482 46.4716C2.35991 46.1218 2.49209 45.7534 2.35393 45.3941C2.05154 44.6079 2 43.3263 2 42.4762C2 41.3253 2 40.1744 2 39.0234C2 38.1006 2.29409 37.3049 2.48763 36.4201C2.62265 35.8029 2.99099 35.2401 2.99099 34.6348C2.99099 33.0997 4.01596 31.5483 4.83141 30.3011C5.0736 29.9307 5.3887 29.6681 5.68084 29.3416C5.97687 29.0107 6.15862 28.4981 6.45948 28.1304C7.30738 27.094 7.93042 26.0336 9.04707 25.236C10.305 24.3375 11.2292 23.1151 12.5863 22.2945C13.1719 21.9404 13.7655 21.6279 14.2852 21.1619C14.73 20.7632 15.4174 20.2071 15.9368 19.935C16.8111 19.477 17.2484 18.5563 18.0289 18.0159C19.0914 17.2804 19.9094 16.1632 20.9705 15.3969C22.102 14.5797 23.3974 14.0603 24.5097 13.234C25.3672 12.597 26.3319 12.2738 27.1996 11.716C27.9134 11.2572 28.7785 11.1816 29.5748 10.9059C30.0454 10.7431 30.3722 10.6543 30.8804 10.6543C31.5436 10.6543 31.6061 10.5668 31.9501 9.99359C32.8041 8.57024 33.758 7.05188 34.986 5.91163C36.015 4.95614 36.496 3.3356 37.6444 2.58472C38.7544 1.85896 39.1137 2.03895 40.2791 2.57686C40.9738 2.89749 41.6669 3.46123 42.2061 4.00043C42.7792 4.57353 43.3154 5.11685 43.8735 5.73074C44.1761 6.06361 44.7727 6.78999 44.8881 7.19364C45.2995 8.63363 48.0777 7.5397 49.0723 7.5397C50.7475 7.5397 52.4228 7.5397 54.098 7.5397C55.0156 7.5397 55.9332 7.5397 56.8508 7.5397C57.5624 7.5397 58.5505 7.50514 59.1946 7.79138C59.6582 7.99742 60.4432 8.10598 60.9642 8.10598C61.251 8.10598 61.5051 8.24755 61.8136 8.24755C62.5902 8.24755 63.3314 7.67641 63.945 7.25656C64.9544 6.56591 65.85 5.68389 66.8394 4.95996C67.4363 4.52318 68.0798 4.01842 68.6011 3.49707C68.7691 3.32916 68.9454 2.80208 69.1832 2.73416C69.4122 2.66871 69.7672 2.46753 69.9539 2.30158C70.3726 1.92945 71.2917 1.9979 71.8258 2.01844C72.8138 2.05644 73.7246 3.39452 74.2718 4.06335C74.8915 4.82067 75.272 5.68443 75.7269 6.5487C76.1101 7.27684 76.8652 7.78725 77.237 8.53069C77.6007 9.25812 77.8697 10.0413 78.2358 10.7329C78.7018 11.6131 79.3298 12.3738 79.6909 13.3126C79.9355 13.9488 80.4355 14.4886 80.7133 15.1137C81.0734 15.924 81.7808 16.6767 82.3807 17.2766C82.8066 17.7025 83.7305 18.6734 83.8279 19.2901C83.9011 19.754 84.7793 20.3669 85.102 20.7058C85.4755 21.0979 85.929 21.3912 86.3132 21.7754C87.9334 23.3956 89.6705 24.9603 91.1188 26.7304C91.6324 27.3582 92.2783 27.8469 92.7468 28.5236C93.291 29.3096 93.6317 30.2265 94.312 30.9067C96.4165 33.0113 96.8293 36.1907 95.7906 38.9605C95.3052 40.255 94.824 41.7834 94.5872 43.1447C94.4627 43.8611 94.0622 44.4982 93.8715 45.1975C93.631 46.0794 93.1671 47.2615 92.6839 48.0289C92.1542 48.8702 91.527 49.7104 91.048 50.5772C90.7476 51.1207 90.1756 51.4001 89.7738 51.8592C89.2075 52.5065 88.7995 53.0977 88.075 53.621C87.4125 54.0994 86.7894 54.6325 86.1245 55.1075C84.3297 56.3895 82.4718 57.2591 80.4302 58.0804C78.9786 58.6644 77.3909 58.8842 75.8999 59.3546C73.3595 60.156 70.7683 60.5357 68.1292 60.7703C65.8994 60.9685 63.5946 61.6428 61.4597 62.3276C58.3887 63.3126 54.9896 63.5125 51.7778 63.5938C49.1876 63.6594 46.7904 62.8223 44.2431 62.6186C42.3333 62.4658 40.4309 62.3799 38.5252 62.1152C35.3192 61.6699 32.4006 60.4405 29.2288 59.8579C27.2685 59.4979 25.4242 58.7642 23.5266 58.222C22.4625 57.918 21.4478 57.2121 20.4042 56.8063C19.457 56.438 18.4182 56.3177 17.4941 55.9254C16.7433 55.6067 16.1046 55.0807 15.3548 54.7614C14.6968 54.4811 14.0257 54.2365 13.3728 53.9434C12.1411 53.3904 10.8868 52.8913 9.72347 52.2053C8.48831 51.4768 7.04082 50.9286 5.85387 50.1525C5.28237 49.7788 4.47072 49.4072 4.12356 48.7997C3.89379 48.3976 3.10094 47.376 2.70785 47.1795" stroke="black" stroke-width="2.064" stroke-linecap="round"/>
</svg>
