<svg width="244" height="88" viewBox="0 0 244 88" fill="none" xmlns="http://www.w3.org/2000/svg">
<path d="M2.65942 20.2381C2.65942 32.638 2.00021 44.595 2.00021 57.0077C2.00021 60.9566 1.91961 64.3982 4.93005 67.4086C8.86549 71.3441 15.53 74.9642 20.7878 76.5644C28.5791 78.9356 36.177 78.9083 44.2266 78.9083C57.9118 78.9083 71.6683 83.2015 85.3543 84.1454C104.213 85.446 125.283 86.8137 143.878 83.0101C158.972 79.9226 174.959 78.2491 190.389 78.2491C196.331 78.2491 202.094 76.9306 208.115 76.9306C214.92 76.9306 221.866 76.2714 228.77 76.2714C234.853 76.2714 238.968 74.9953 240.636 68.3242C242.179 62.1527 241.955 56.2443 241.955 49.8662C241.955 42.8096 242.43 34.9797 240.307 28.1853C239.194 24.6238 238.41 19.7773 237.999 16.2828C236.963 7.47038 223.398 7.10341 217.051 5.22266C214.768 4.54612 211.437 4.75438 209.03 4.45358C206.289 4.11094 203.335 4.41695 200.57 4.41695C194.796 4.41695 189.022 4.41695 183.248 4.41695C176.228 4.41695 169.209 4.41695 162.19 4.41695C157.967 4.41695 153.74 4.48505 149.518 4.41695C144.979 4.34375 140.616 2.79102 136.151 2.40269C120.636 1.05359 105.201 2.43931 89.6758 2.43931C83.1874 2.43931 76.837 3.75774 70.1924 3.75774C61.5248 3.75774 52.4485 3.61407 43.897 4.92968C34.1543 6.42855 23.7111 4.97591 14.1957 7.09044C7.74252 8.52448 2.65941 10.7051 2.65941 18.2042C2.65941 24.9155 2.31415 32.6655 2.31415 39.1973" stroke="black" stroke-width="3.45091" stroke-linecap="round"/>
<path d="M53.4883 37.2399C50.9852 36.1831 48.6539 34.7481 46.0168 35.9468C44.5251 36.6248 44.4049 37.6511 43.7842 39.0305C41.7752 43.4949 48.1533 44.8615 51.0899 45.5957C54.1281 46.3553 53.5128 51.9155 51.7862 53.642C50.3854 55.0429 46.9273 55.1679 45.1326 54.902C43.0011 54.5862 41.7531 53.0575 39.96 52.161" stroke="black" stroke-width="3.45091" stroke-linecap="round"/>
<path d="M67.2158 35.6483C67.2158 39.1282 67.1192 42.6252 67.2158 46.1041C67.2622 47.775 68.1343 49.3855 68.8184 50.8677C69.1818 51.6551 70.1453 51.8311 70.7858 52.2714C71.4536 52.7306 72.3169 53.341 73.14 53.5093C74.3928 53.7656 77.3134 53.9342 78.4452 53.2551C79.8746 52.3975 81.7053 51.7408 82.4352 50.1272C82.8549 49.1995 83.2063 48.0907 83.3415 47.0767C83.4782 46.0521 83.401 44.974 83.5736 43.9599C83.9637 41.6682 83.7284 39.1716 83.7284 36.842" stroke="black" stroke-width="3.45091" stroke-linecap="round"/>
<path d="M99.843 22.5179C99.843 25.9 99.843 29.2821 99.843 32.6642C99.843 33.7105 99.843 34.7568 99.843 35.8031C99.843 37.528 99.4819 39.5611 99.9424 41.2189C100.547 43.3944 100.241 45.9399 100.241 48.182C100.241 49.6741 100.241 51.1662 100.241 52.6583C100.241 53.3786 100.44 55.6718 100.44 53.6309C100.44 51.2413 100.533 48.9458 100.882 46.5904C101.167 44.6648 101.837 42.6286 102.54 40.821C103.036 39.5453 103.654 38.0582 104.618 37.041C105.843 35.7472 108.057 35.1649 109.746 34.8968C112.322 34.4879 114.483 34.5456 116.742 35.9578C120.339 38.2057 119.846 43.5633 118.444 46.9883C118.1 47.83 117.813 48.6734 117.361 49.4641C116.879 50.3079 116.097 50.8743 115.571 51.6636C114.631 53.0727 111.493 53.1557 110.033 53.1557C107.594 53.1557 105.842 52.0722 103.921 50.5694C102.66 49.582 101.359 48.6275 100.639 47.1873" stroke="black" stroke-width="3.45091" stroke-linecap="round"/>
<path d="M132.47 35.6483C132.47 42.6115 132.47 49.5746 132.47 56.5377C132.47 57.6018 132.279 54.8264 132.315 54.4598C132.488 52.7355 132.938 51.0179 133.465 49.3756C134.128 47.309 134.644 44.8966 135.963 43.0978C137.131 41.5053 138.269 39.8479 139.831 38.6325C140.638 38.0053 142.387 37.6378 143.401 37.6378C145.202 37.6378 145.888 37.9652 147.104 39.3841C149.149 41.7696 149.779 44.2461 149.779 47.342C149.779 49.6254 149.58 51.8828 149.58 54.1504C149.58 54.8356 149.58 55.5209 149.58 56.2061C149.58 57.7629 149.364 53.099 149.182 51.553C148.836 48.6185 148.631 45.1956 149.182 42.302C149.509 40.5837 150.627 38.5349 152.066 37.5383C153.747 36.3748 154.792 36.2452 156.786 36.2452C159.191 36.2452 160.698 38.0793 161.715 40.1136C162.673 42.0284 162.605 44.1408 162.898 46.1925C163.364 49.4579 162.71 52.9479 162.71 56.1398" stroke="black" stroke-width="3.45091" stroke-linecap="round"/>
<path d="M178.228 35.2505C178.228 42.1043 178.029 48.9042 178.029 55.742" stroke="black" stroke-width="3.45091" stroke-linecap="round"/>
<path d="M178.029 25.1042C177.261 25.7042 176.338 27.0878 177.233 28.0884C177.7 28.6106 179.035 28.7306 179.576 28.2431C179.814 28.0294 180.25 26.6183 179.974 26.3421C179.736 26.1043 178.397 25.701 178.029 25.701" stroke="black" stroke-width="3.45091" stroke-linecap="round"/>
<path d="M195.735 29.282C195.735 35.0018 195.536 40.6791 195.536 46.4025C195.536 49.809 195.735 53.1555 195.735 56.5377" stroke="black" stroke-width="3.45091" stroke-linecap="round"/>
<path d="M190.165 38.0357C193.085 38.0357 195.982 38.2347 198.874 38.2347C199.65 38.2347 203.206 37.8564 203.494 38.4336" stroke="black" stroke-width="3.45091" stroke-linecap="round"/>
</svg>
