<svg width="291" height="267" viewBox="0 0 291 267" fill="none" xmlns="http://www.w3.org/2000/svg">
<path d="M113.067 163.136C111.894 154.483 110.558 145.477 110.558 136.788C110.558 132.344 109.566 123.265 107.77 119.223C106.417 116.179 108.55 106.864 104.006 108.21C95.5323 110.721 84.5443 109.502 75.7069 109.186C71.0525 109.02 66.4735 107.931 61.627 107.931C58.6466 107.931 55.8535 106.835 52.8445 106.677C46.845 106.361 52.2737 102.227 54.3779 100.403C61.7836 93.9851 71.9788 88.4481 77.9373 80.608C81.1198 76.4206 87.6504 72.0605 92.0172 69.0374C100.275 63.3204 111.03 57.2741 118.086 50.2178C121.24 47.0633 125.227 44.8885 128.402 41.7141C132.794 37.322 139.191 41.6146 144.433 43.9445C152.722 47.6282 160.155 51.6258 167.993 56.491C174.608 60.597 185.133 61.7096 190.855 66.5281C199.936 74.175 213.616 74.2334 222.221 82.8385C225.827 86.4441 234.115 92.5308 238.81 94.4091C246.715 97.571 231.14 98.823 228.495 99.4276C218.612 101.686 208.658 106.677 198.383 106.677C192.945 106.677 187.664 107.931 182.073 107.931C174.832 107.931 173.29 106.879 173.29 114.205C173.29 122.993 174.545 131.529 174.545 140.552C174.545 149.753 174.545 158.953 174.545 168.154C174.545 174.184 174.301 174.427 168.272 174.427C163.997 174.427 157.095 174.773 152.937 175.961C146.502 177.799 139.369 176.545 133.142 179.167C130.135 180.433 121.473 180.701 118.086 180.701C112.369 180.701 114.322 175.318 114.322 170.663C114.322 166.632 113.505 162.755 111.813 159.372" stroke="#DF0000" stroke-width="4.8743" stroke-linecap="round"/>
<path d="M117.152 198.674C124.532 198.674 132.165 199.403 139.388 199.403C144.47 199.403 149.044 200.132 154.01 200.132C157.603 200.132 162.721 201.022 166 199.565C167.79 198.77 169.952 199.672 171.832 198.836C173.435 198.124 176.605 197.945 178.394 197.945" stroke="#EED600" stroke-width="4.8743" stroke-linecap="round"/>
<path d="M12.1469 69.9215C27.3291 9.19256 93.9617 3 146.167 3C170.539 3 192.052 12.0751 212.468 23.7412C223.963 30.3099 235.059 33.5807 245.885 42.0006C250.678 45.7289 259.061 51.4904 264.587 53.7008C270.779 56.1775 271.836 64.4897 274.16 70.0101C280.81 85.8052 288.165 99.0786 288.165 116.279C288.165 130.813 286.569 146.351 286.569 160.155C286.569 165.318 282.989 174.203 279.833 178.148C275.931 183.025 275.343 189.684 272.21 195.167C268.241 202.113 264.819 208.25 259.801 215.199C256.575 219.665 253.516 225.218 249.075 228.672C245.994 231.068 241.499 231.845 238.705 234.344C231.862 240.467 222.563 245.548 213.886 248.704C205.823 251.636 198.695 256.781 190.486 259.518C168.096 266.981 136.936 264.912 114.258 259.872C94.3259 255.443 75.8617 246.601 58.3271 236.738C50.792 232.499 42.473 227.678 37.6745 220.34C32.5262 212.466 24.1358 203.273 21.3652 194.457C18.9536 186.784 12.0594 180.447 9.31047 172.475C7.95013 168.53 6.64721 163.939 4.96722 160.243C1.40833 152.414 4.16949 137.67 4.16949 129.043C4.16949 108.261 7.18282 89.7777 12.1469 69.9215Z" stroke="#75D927" stroke-width="4.8743" stroke-linecap="round"/>
</svg>
